<svg width="14" height="16" viewBox="0 0 14 16" fill="none" xmlns="http://www.w3.org/2000/svg">
<path d="M6.60005 8.92505C6.90381 8.92505 7.15005 8.64523 7.15005 8.30005C7.15005 7.95487 6.90381 7.67505 6.60005 7.67505C6.29629 7.67505 6.05005 7.95487 6.05005 8.30005C6.05005 8.64523 6.29629 8.92505 6.60005 8.92505Z" stroke="#1E1E1E" stroke-width="1.2" stroke-linecap="round" stroke-linejoin="round"/>
<path d="M6.60005 4.55005C6.90381 4.55005 7.15005 4.27023 7.15005 3.92505C7.15005 3.57987 6.90381 3.30005 6.60005 3.30005C6.29629 3.30005 6.05005 3.57987 6.05005 3.92505C6.05005 4.27023 6.29629 4.55005 6.60005 4.55005Z" stroke="#1E1E1E" stroke-width="1.2" stroke-linecap="round" stroke-linejoin="round"/>
<path d="M6.60005 13.3C6.90381 13.3 7.15005 13.0202 7.15005 12.675C7.15005 12.3299 6.90381 12.05 6.60005 12.05C6.29629 12.05 6.05005 12.3299 6.05005 12.675C6.05005 13.0202 6.29629 13.3 6.60005 13.3Z" stroke="#1E1E1E" stroke-width="1.2" stroke-linecap="round" stroke-linejoin="round"/>
</svg>
